<?xml version="1.0" encoding="utf-8"?>
<!-- Generator: Adobe Illustrator 26.0.3, SVG Export Plug-In . SVG Version: 6.00 Build 0)  -->
<svg version="1.1" id="Layer_1" xmlns="http://www.w3.org/2000/svg" xmlns:xlink="http://www.w3.org/1999/xlink" x="0px" y="0px"
	 viewBox="0 0 1400 1400" enable-background="new 0 0 1400 1400" xml:space="preserve">
<g>
	<g>
		<path fill="#9B0A07" d="M335.9,825.9c0,0-0.3-0.5-0.9-1.6c-0.7-1.2-1.5-2.9-2.6-5.2c-1-2.2-2.2-5-3.4-8.3
			c-0.6-1.6-1.2-3.3-1.9-5.2c-0.7-1.8-1.5-3.7-2.3-5.7c-1.6-4.1-3.4-8.6-5.7-13.3c-1.1-2.3-2.3-4.7-3.7-7.1c-1.4-2.4-2.9-4.7-4.6-7
			c-1.7-2.3-3.7-4.4-5.9-6.3l-0.4-0.4c-0.2-0.1,0,0-0.1-0.1l-0.3-0.2c-0.3-0.3-0.7-0.6-1-0.8l-0.8-0.6l-0.9-0.6
			c-1.2-0.8-2.5-1.6-3.8-2.2c-2.7-1.3-5.5-2.1-8.3-2.3c-0.4,0-0.7,0-1.1,0c-0.4,0-0.7,0-1.1,0l-0.5,0c-0.2,0,0.6-0.1,0.1,0l-0.4,0.1
			l-0.7,0.1l-0.4,0.1c-0.1,0-0.3,0-0.3,0.1c-0.2,0.1-0.4,0.1-0.6,0.2c-0.1,0-0.3,0.1-0.4,0.1l-0.5,0.2c-0.3,0.1-0.7,0.3-1,0.4
			c-0.3,0.2-0.7,0.3-1.1,0.5c-1.5,0.7-3.1,1.8-4.9,2.9c-1.8,1.1-3.8,2.4-6.3,3.6c-2.4,1.2-5.4,2.3-8.7,2.7c-0.8,0.1-1.7,0.2-2.5,0.1
			l-1.3,0c-0.4,0,0,0-1-0.1l-0.4-0.1l-0.8-0.1c-0.1,0-0.3-0.1-0.6-0.1l-0.8-0.2c-0.5-0.1-1.1-0.3-1.5-0.4l-1.3-0.5
			c-3.6-1.4-6.6-4.3-8.5-7.3c-1.9-3-2.9-6.1-3.5-9c-1.2-5.9-1.1-11.5-0.4-17.1c0.4-2.8,0.9-5.6,1.6-8.4c0.4-1.4,0.8-2.9,1.4-4.4
			c0.1-0.4,0.3-0.8,0.4-1.1c0,0,0.3-0.7,0.3-0.8l0.2-0.4l0.8-1.8c2.6-5.5,6-10.5,10.1-15c2-2.3,4.3-4.4,6.7-6.4
			c2.4-1.9,4.9-3.8,7.6-5.4c2.7-1.7,5.5-3.1,8.3-4.4c2.9-1.2,5.9-2.4,8.9-3.3c12.2-3.7,25.7-4.6,39-2c3.3,0.6,6.7,1.5,9.9,2.6
			l2.5,0.9c0.8,0.3,1.6,0.7,2.4,1c0.8,0.3,1.6,0.7,2.4,1.1l1.2,0.6l0.6,0.3c0.1,0,0.6,0.3,0.7,0.4l2.1,1.1c0.7,0.4,1.4,0.7,2.2,1.2
			c1.5,0.9,3.1,1.8,4.5,2.7l2.2,1.4l2.1,1.5c1.4,1,2.8,2,4.2,3c11,8.2,20.7,17.9,30.3,27.5c4.8,4.9,9.6,9.5,14.7,13.8
			c5.1,4.4,10.4,8.6,16,12.3c5.6,3.8,11.5,7.2,17.7,10.2c1.6,0.7,3.1,1.5,4.7,2.1c1.6,0.6,3.2,1.3,4.8,1.9c1.6,0.5,3.2,1.1,4.9,1.6
			c1.6,0.5,3.3,0.9,4.9,1.4c6.6,1.7,13.5,2.6,20.3,2.6l1.4,0l0.7,0l0.6,0l2.3-0.2c0.8,0,1.6-0.2,2.5-0.3c0.8-0.1,1.7-0.2,2.5-0.4
			c1.7-0.3,3.3-0.6,4.9-1.1c1.7-0.4,3.2-0.9,4.9-1.5c6.4-2.3,12.5-5.6,17.8-10c1.4-1,2.6-2.3,3.9-3.4c1.2-1.2,2.4-2.4,3.5-3.8
			c1.2-1.3,2.1-2.7,3.1-4.1c0.9-1.4,1.9-2.9,2.7-4.4c1.6-3,3-6.1,3.9-9.4c0.3-0.8,0.5-1.6,0.6-2.5c0.2-0.8,0.4-1.6,0.5-2.5l0.4-2.5
			l0.2-2.5c0.3-6.8-1.1-13.6-4-20.1l-0.5-1.2c-0.2-0.4-0.4-0.8-0.6-1.2l-1.2-2.4c-0.5-0.8-1-1.5-1.4-2.3l-0.7-1.2
			c-0.1-0.1-0.3-0.5-0.4-0.7l-0.4-0.6c-1.1-1.7-2.3-3.4-3.4-5.2c-1.1-1.8-2.3-3.6-3.4-5.4c-4.4-7.3-8.6-14.7-12.5-22.4
			c-7.8-15.3-14.4-31.5-19.5-48.4c-5.1-16.9-8.6-34.5-10.1-52.6c-1.5-18-0.9-36.5,1.9-54.7c1.4-9.1,3.4-18.2,6-27.2
			c0.7-2.3,1.4-4.6,2.1-6.9c0.7-2.1,1.5-4.3,2.2-6.4c0.7-2.1,1.5-4.3,2.2-6.4c0.9-2.2,1.8-4.4,2.6-6.6c0.9-2.2,1.8-4.4,2.7-6.6
			c1-2.1,2-4.2,2.9-6.4c1-2.1,2-4.2,3-6.4c1.1-2.1,2.2-4.1,3.3-6.2c1.1-2.1,2.2-4.2,3.3-6.2l3.6-6.1c1.2-2,2.4-4.1,3.6-6.1l3.9-5.9
			c20.9-31.4,48.5-59.1,81.4-79.5l6.2-3.7l3.1-1.9c1-0.6,2.1-1.2,3.2-1.7l6.4-3.4l1.6-0.8l0.8-0.4c0.2-0.1,0.8-0.4,0.9-0.5l3.2-1.5
			l3.2-1.5l1.6-0.8l1.7-0.7l6.8-2.9c2.3-0.9,4.5-1.8,6.8-2.6c1.1-0.4,2.3-0.9,3.4-1.3l3.4-1.2c2.3-0.8,4.6-1.6,6.9-2.3l7-2.1
			c2.3-0.7,4.7-1.3,7-1.9c1.2-0.3,2.3-0.6,3.5-0.9l3.6-0.8c2.4-0.5,4.7-1.1,7.1-1.6l7.2-1.4c2.4-0.4,4.8-0.8,7.2-1.2l3.6-0.6
			l3.6-0.4c38.6-4.9,78.3-2.4,116,8l7.1,2c2.3,0.7,4.7,1.5,7,2.3c1.2,0.4,2.3,0.7,3.5,1.2l3.4,1.3c2.3,0.9,4.6,1.6,6.9,2.6
			c9.1,3.6,18,7.8,26.7,12.4l6.4,3.6c2.1,1.2,4.2,2.5,6.3,3.8c1,0.6,2.1,1.3,3.1,1.9l3.1,2l3.1,2c1,0.7,2,1.4,3,2.1l5.9,4.4
			c2,1.5,3.8,3.1,5.8,4.6l1.4,1.2l0.7,0.6c0.2,0.2,0.7,0.6,0.8,0.7l2.7,2.3c1.8,1.6,3.6,3.1,5.3,4.7l5.4,5.2
			c0.9,0.9,1.8,1.7,2.7,2.6l2.5,2.7c1.7,1.8,3.4,3.5,5,5.3l4.8,5.5c0.8,0.9,1.6,1.8,2.4,2.8l2.3,2.9c1.5,1.9,3,3.8,4.5,5.7l4.3,5.9
			l2.1,2.9l2,3l4,6.1l3.8,6.2l1.9,3.1l1.8,3.2l3.5,6.3c4.4,8.6,8.7,17.3,12.2,26.2c14.6,35.6,21.7,73.9,20.8,111.7
			c-0.5,18.9-3.2,37.7-7.8,55.8c-4.9,18.1-11.8,35.5-20.8,51.7c-4.5,8-9.2,15.5-13.5,23c-4.3,7.5-8.2,15-11.3,22.6
			c-3,7.6-5.2,15.3-5.5,22.6c-0.3,7.3,1.5,14,5.4,19.6c0.3,0.4,0,0.1,0.2,0.3l0.5,0.6l1,1.3c0.2,0.2,0.3,0.4,0.5,0.5l0.4,0.4
			l0.8,0.9c0.6,0.6,1.2,1.2,1.9,1.8l2,1.7c2.8,2.2,5.9,3.9,9.3,5.4c3.4,1.4,7,2.5,10.7,3.4c3.7,0.8,7.5,1.3,11.4,1.7
			c16.2,1.5,32.2,1.3,47.9-0.7c15.7-1.9,30.9-5.6,45.6-10.3c1.9-0.6,3.8-1.2,5.8-1.8c1.9-0.6,3.9-1.1,5.9-1.7c2-0.6,4-1,5.9-1.5
			c2-0.5,4-0.9,5.9-1.4c8-1.7,16-2.9,24.2-3.3c8.1-0.4,16.3-0.1,24.3,1c8,1.2,15.8,3.2,23.2,5.9l2.8,1l2.7,1.1l2.7,1.1l1.3,0.6
			l1.5,0.7l2.5,1.2c0.4,0.2,0.9,0.5,1.3,0.7l1.4,0.8c0.9,0.5,1.9,1.1,2.7,1.6l2.5,1.7l1.2,0.8c0.4,0.3,0.8,0.6,1.2,0.9l2.4,1.8
			c1.5,1.3,3,2.6,4.5,3.9c2.8,2.8,5.5,5.6,7.9,8.6c9.8,12.1,16.1,26.1,19.3,40.4c3.2,14.3,3.5,29,0.4,42.9c-1.5,6.9-4,13.6-7.2,19.8
			c-0.9,1.5-1.7,3.1-2.6,4.5c-1,1.5-1.8,3-2.9,4.3l-1.6,2.1l-0.8,1c0,0.1-0.4,0.5-0.5,0.6l-0.4,0.4l-1.5,1.8l-1.8,2
			c-0.6,0.7-1.2,1.3-1.8,1.9c-0.6,0.6-1.2,1.2-1.9,1.8c-1.3,1.1-2.5,2.2-3.9,3.3c-2.6,2.1-5.4,4-8.3,5.6c-2.9,1.7-5.9,3.1-8.9,4.4
			c-3.1,1.2-6.2,2.3-9.3,3c-0.8,0.2-1.6,0.4-2.4,0.5l-2.4,0.5c-1.6,0.2-3.2,0.5-4.8,0.6l-2.4,0.2l-2.4,0l-1.1,0c-0.4,0-0.8,0-1.3,0
			c-0.8,0-1.7-0.1-2.5-0.1c-6.4-0.5-12.5-2-18.2-4.2c-5.7-2.3-10.9-5.4-15.6-9.1c-4.6-3.8-8.6-8.3-11.6-13.2l-1-1.6
			c-0.4-0.7-0.7-1.4-1.1-2.1c-0.4-0.7-0.7-1.4-1-2.1c-0.3-0.7-0.5-1.3-0.8-2c-0.3-0.7-0.5-1.3-0.8-2c-0.2-0.7-0.4-1.4-0.6-2.1
			c-0.2-0.7-0.4-1.4-0.6-2c-0.2-0.7-0.3-1.4-0.5-2.1c-1.2-5.5-1.3-11.2-0.5-16.5c1.6-10.7,6.8-20.2,14.1-27
			c3.7-3.4,7.9-6.1,12.4-7.9c4.5-1.8,9.3-2.7,13.9-2.6c4.6,0.1,8.9,1,12.9,2.4c1,0.4,1.9,0.8,2.9,1.2c0.9,0.4,1.8,0.9,2.7,1.4
			c1.8,0.9,3.3,2,4.9,3c0.8,0.5,1.5,1.1,2.2,1.6c0.4,0.3,0.7,0.6,1.1,0.8l0.5,0.4l0.3,0.2c-0.1-0.1,0.5,0.4,0.5,0.4
			c0.6,0.5,1.1,1.1,1.7,1.6c0.1,0.1,0.4,0.4,0.5,0.5l0.5,0.6c0.4,0.4,0.7,0.8,1.1,1.2c2.5,3.1,4.3,6.7,5.1,10.5
			c0.8,3.8,0.5,7.6-0.5,10.8c-0.9,3.3-2.5,6-4.3,8.2c-1.8,2.2-3.8,4-5.9,5.4c-2.1,1.4-4.3,2.4-6.5,2.9c-2.2,0.6-4.3,0.8-6.3,0.6
			c-0.5,0-1-0.2-1.5-0.3c-0.2,0-0.5-0.1-0.7-0.1c-0.2-0.1-0.4-0.1-0.7-0.2c-0.4-0.1-0.9-0.3-1.3-0.4c-0.4-0.2-0.8-0.4-1.1-0.6
			c-1.4-0.8-2.5-1.7-3.2-2.6c-0.4-0.4-0.7-0.8-1-1.2c-0.3-0.4-0.5-0.7-0.7-1c-0.7-1.3-0.9-2-0.9-2c-0.5-1.4,0.1-2.9,1.5-3.4
			c0.9-0.4,1.9-0.2,2.6,0.4l0.4,0.4c0,0,0.4,0.3,1.1,1c0.7,0.5,1.8,1.3,3.2,1.5c0.2,0,0.3,0.1,0.5,0.1c0.2,0,0.4,0,0.6,0l0.3,0
			l0.3,0c0.2,0,0.4,0,0.6-0.1c0.9-0.2,1.8-0.5,2.8-1.1c2-1.1,4.3-3.2,5.9-6c0.8-1.4,1.4-2.9,1.6-4.5c0.2-1.6,0.2-3.1-0.2-4.7
			c-0.4-1.5-1.3-3.1-2.6-4.6c-0.2-0.2-0.3-0.3-0.4-0.5l-0.2-0.2c-0.1-0.1-0.1-0.1-0.3-0.3c-0.6-0.5-1.1-1-1.7-1.6
			c-0.1-0.1,0.3,0.3,0,0l-0.2-0.2l-0.4-0.3l-0.8-0.6c-0.5-0.4-1.1-0.9-1.6-1.2c-1.2-0.7-2.3-1.6-3.5-2.1c-0.6-0.3-1.2-0.7-1.8-0.9
			c-0.6-0.3-1.3-0.5-1.9-0.8c-2.6-0.9-5.3-1.5-8.2-1.5c-5.6-0.1-11.6,2.2-16.5,6.7c-4.9,4.5-8.6,11.2-9.7,18.7
			c-1.1,7.5,0.4,15.6,4.9,22.7c2.2,3.6,5.1,6.9,8.6,9.7c3.5,2.8,7.5,5.1,11.8,6.9c4.4,1.7,9.1,2.8,13.9,3.2l1.7,0.1
			c0.3,0,0.5,0,0.9,0l1.1,0l1.9,0l1.8-0.1c1.2-0.1,2.5-0.3,3.7-0.5l1.8-0.4c0.6-0.1,1.2-0.2,1.8-0.4c9.8-2.4,19.4-8,26.9-15.8
			l1.3-1.4l1.5-1.8l0.4-0.4c0.2-0.2,0,0,0.2-0.3l0.6-0.8l1.2-1.7c0.8-1.1,1.5-2.3,2.3-3.5c0.8-1.2,1.4-2.4,2.1-3.7
			c2.6-5,4.6-10.5,5.8-16.2c2.5-11.5,2.3-24.1-0.5-36.3c-2.8-12.3-8.3-24.3-16.5-34.3c-2-2.5-4.3-4.9-6.6-7.1
			c-1.2-1.1-2.4-2.2-3.7-3.2l-1.9-1.5c-0.3-0.2-0.6-0.5-1-0.7l-1-0.7l-2-1.4c-0.7-0.4-1.3-0.8-2-1.2l-1-0.6
			c-0.3-0.2-0.6-0.4-1.1-0.6l-2.5-1.2l-1-0.5l-1.2-0.5l-2.4-1l-2.4-1l-2.4-0.9c-6.5-2.4-13.3-4.1-20.2-5.1c-7-1-14.1-1.3-21.3-0.8
			c-7.2,0.4-14.5,1.5-21.8,3.1c-1.8,0.4-3.7,0.8-5.5,1.3c-1.8,0.5-3.7,0.9-5.5,1.4c-1.8,0.5-3.6,1-5.5,1.6c-1.9,0.6-3.7,1.2-5.6,1.7
			c-15.4,5-31.7,8.9-48.4,11.1c-16.7,2.1-34,2.4-51.1,0.9c-8.8-0.7-18.1-2.4-26.9-6.2c-4.4-1.9-8.7-4.3-12.7-7.4
			c-1-0.8-1.9-1.6-2.9-2.4c-0.9-0.9-1.8-1.7-2.7-2.7L953,765l-0.7-0.8c-0.2-0.3-0.4-0.5-0.6-0.7l-1-1.3l-0.5-0.6
			c-0.1-0.1-0.7-0.9-0.7-1c-3-4.2-5.3-9-6.6-14c-1.4-5-1.9-10.2-1.7-15.2c0.4-10,3.1-19.3,6.5-27.9c3.5-8.6,7.7-16.7,12.2-24.6
			c4.4-7.8,9.2-15.4,13.4-22.9c8.2-14.9,14.7-31.2,19.2-48c4.3-16.9,6.8-34.4,7.2-52.2c0.8-35.5-6-71.6-19.8-105.2
			c-3.3-8.4-7.4-16.6-11.6-24.7l-3.3-6l-1.7-3l-1.8-2.9l-3.6-5.8l-3.8-5.7l-1.9-2.8l-2-2.8l-4-5.5l-4.3-5.4l-2.1-2.7
			c-0.7-0.9-1.5-1.7-2.2-2.6l-4.5-5.2c-1.5-1.7-3.1-3.3-4.7-5l-2.4-2.5c-0.8-0.8-1.6-1.6-2.4-2.4l-4.8-4.7c-1.7-1.6-3.5-3.1-5.3-4.7
			l-2.7-2.3c-0.4-0.3-0.3-0.2-0.5-0.4l-0.7-0.5l-1.3-1.1c-1.8-1.4-3.5-2.9-5.4-4.2l-5.5-4c-0.9-0.7-1.9-1.3-2.8-2l-2.8-1.9l-2.8-1.9
			c-1-0.6-1.9-1.2-2.9-1.8c-2-1.2-3.9-2.4-5.9-3.5l-6-3.3c-8.1-4.3-16.4-8.2-25-11.6c-2.1-0.9-4.3-1.6-6.5-2.4l-3.2-1.2
			c-1.1-0.4-2.2-0.7-3.3-1.1c-2.2-0.7-4.4-1.5-6.6-2.1l-6.6-1.9c-35.5-9.7-73.1-12.1-109.6-7.5l-3.4,0.4l-3.4,0.5
			c-2.3,0.4-4.5,0.7-6.8,1.1l-6.8,1.3c-2.3,0.4-4.5,1-6.7,1.5l-3.3,0.8c-1.1,0.3-2.2,0.6-3.3,0.9c-2.2,0.6-4.4,1.1-6.6,1.8l-6.6,2
			c-2.2,0.6-4.3,1.4-6.5,2.2l-3.2,1.1c-1.1,0.4-2.1,0.8-3.2,1.2c-2.1,0.8-4.3,1.6-6.4,2.5l-6.2,2.6l-1.5,0.7L638,323l-3.2,1.5
			l-3.2,1.5c-0.4,0.2-0.4,0.2-0.6,0.3l-0.8,0.4l-1.5,0.8l-6,3.2c-1,0.5-2,1-3,1.6l-2.9,1.7l-5.8,3.5c-15.4,9.5-29.6,20.8-42.4,33.4
			c-12.8,12.6-24.2,26.4-34.1,41.2l-3.7,5.6c-1.2,1.9-2.3,3.8-3.4,5.7l-3.4,5.7c-1.1,1.9-2.1,3.9-3.1,5.9l-3.1,5.9
			c-0.9,2-1.9,4-2.8,6c-0.9,2-1.9,4-2.8,6c-0.8,2-1.6,4-2.4,6c-0.8,2-1.6,4-2.4,6c-0.7,2.1-1.5,4.3-2.2,6.4
			c-0.7,2.1-1.5,4.3-2.2,6.4c-0.6,2-1.2,4-1.8,6c-2.4,8.3-4.2,16.7-5.6,25.2c-2.7,16.9-3.2,34.1-1.8,50.9
			c1.4,16.8,4.7,33.4,9.4,49.3c4.8,15.9,11,31.3,18.4,45.8c3.7,7.3,7.6,14.4,11.8,21.3c1,1.7,2.1,3.4,3.1,5.1
			c1.1,1.7,2.2,3.5,3.4,5.2l0.4,0.6l0.4,0.6l0.9,1.5c0.6,1,1.2,1.9,1.8,2.9l1.6,3.1c0.3,0.5,0.5,1,0.8,1.5l0.7,1.6
			c3.8,8.4,5.7,17.9,5.3,27.2l-0.2,3.5l-0.5,3.4c-0.1,1.2-0.4,2.3-0.7,3.4c-0.2,1.1-0.5,2.3-0.9,3.3c-1.2,4.4-3.1,8.7-5.2,12.6
			c-1.1,2-2.3,3.9-3.5,5.8c-1.3,1.8-2.6,3.6-4.1,5.3c-1.4,1.7-3,3.3-4.5,4.9c-1.6,1.5-3.2,3-4.9,4.4c-6.8,5.5-14.5,9.7-22.5,12.6
			c-2,0.7-4.1,1.4-6.1,1.8c-2.1,0.6-4.2,0.9-6.2,1.3c-1,0.2-2.1,0.3-3.1,0.4c-1.1,0.1-2.1,0.3-3.2,0.3l-3.3,0.2l-0.8,0l-0.7,0
			l-1.4,0c-8.3-0.1-16.4-1.2-24.1-3.2c-1.9-0.5-3.9-1-5.7-1.6c-1.9-0.6-3.7-1.3-5.6-1.9c-1.8-0.7-3.6-1.5-5.4-2.2
			c-1.8-0.8-3.5-1.6-5.3-2.4c-6.9-3.4-13.5-7.2-19.7-11.4c-6.2-4.2-11.9-8.7-17.4-13.5c-5.5-4.8-10.7-9.8-15.4-14.6
			c-9.6-9.7-18.8-18.8-28.6-26.2c-1.2-0.9-2.4-1.8-3.7-2.7l-1.9-1.3l-1.9-1.2c-1.3-0.8-2.5-1.5-3.7-2.3c-0.6-0.4-1.3-0.7-2-1.1
			l-2.1-1.1l-1.8-0.8c-0.6-0.3-1.3-0.6-1.9-0.8c-0.6-0.3-1.3-0.5-1.9-0.8l-2-0.7c-2.6-0.9-5.3-1.6-8-2.1c-5.4-1.1-10.9-1.4-16.2-1.2
			c-5.4,0.3-10.6,1.2-15.6,2.7c-2.5,0.7-4.9,1.7-7.2,2.6c-2.3,1.1-4.5,2.2-6.6,3.5c-2.1,1.3-4.1,2.7-6,4.2c-1.8,1.6-3.6,3.1-5.2,4.9
			c-3.2,3.4-5.8,7.3-7.7,11.2l-0.8,1.8l-0.2,0.4c-0.1,0.2,0.1-0.2-0.1,0.1c-0.1,0.2-0.2,0.4-0.3,0.7c-0.3,0.9-0.7,2-0.9,3
			c-0.6,2.1-1,4.3-1.3,6.5c-0.6,4.3-0.6,8.7,0.1,12.2c0.3,1.8,0.9,3.2,1.5,4.2c0.3,0.5,0.6,0.9,0.9,1.1c0.1,0.2,0.3,0.2,0.4,0.4
			c0.2,0.1,0.3,0.2,0.5,0.2c0.1,0,0.2,0.1,0.3,0.1c0.1,0,0.1,0,0.1,0c0,0,0,0,0,0c0,0,0,0,0.2,0.1l0.8,0.1l0.4,0.1
			c-0.7-0.1-0.1,0-0.2-0.1l0.4,0c0.3,0,0.6,0,0.8,0c1.1-0.1,2.4-0.5,3.9-1.2c1.5-0.7,3.2-1.8,5-2.9c1.8-1.1,3.7-2.3,6-3.5
			c0.5-0.3,1.1-0.6,1.7-0.8c0.6-0.3,1.2-0.5,1.8-0.8l1-0.3c0.3-0.1,0.6-0.2,1-0.3c0.8-0.2,1.6-0.4,2.4-0.6c0.2-0.1,0.3-0.1,0.5-0.1
			l0.4-0.1l0.7-0.1l0.4-0.1c-0.3,0,0.8-0.1,0.9-0.1l1-0.1c0.6,0,1.3,0,1.9,0c0.6,0,1.3,0,1.9,0.1c5,0.4,9.6,1.8,13.6,3.8
			c2,1,3.9,2.1,5.6,3.3c0.4,0.3,0.9,0.6,1.3,0.9c0.4,0.3,0.9,0.7,1.3,1l1.1,0.9l0.3,0.2c0.1,0,0.4,0.3,0.4,0.3l0.6,0.5
			c3,2.7,5.6,5.5,7.7,8.4c2.2,2.9,4,5.7,5.6,8.6c1.6,2.8,3,5.5,4.2,8.1c2.4,5.2,4.3,10,6,14.2c0.8,2.1,1.6,4.1,2.3,6
			c0.7,1.8,1.3,3.6,1.9,5.2c1.1,3.1,2.2,5.6,3,7.5c0.9,1.9,1.6,3.4,2,4.2c0.6,1,0.8,1.5,0.8,1.5l0,0c1.9,3.4,0.6,7.6-2.8,9.5
			C342.1,830.5,337.8,829.3,335.9,825.9z"/>
	</g>
	<g>
		<path fill="#9B0A07" d="M380.5,863.3c0,0-0.3-0.4-0.8-1.1c-0.3-0.4-0.6-0.8-1-1.4c-0.2-0.3-0.4-0.6-0.6-0.9
			c-0.2-0.3-0.4-0.6-0.7-0.9c-0.5-0.6-1-1.3-1.6-2c-0.6-0.7-1.4-1.5-2.1-2.4c-0.8-0.9-1.7-1.7-2.6-2.7c-0.9-1-2-1.9-3.1-2.9
			c-4.5-4-10.5-8.3-17.9-12.2c-3.7-1.9-7.9-3.7-12.4-5.2c-1.1-0.4-2.2-0.8-3.4-1.1c-1.2-0.3-2.3-0.7-3.5-1c-0.6-0.1-1.2-0.3-1.8-0.4
			l-0.9-0.2l-0.1,0c0,0-0.2-0.1,0,0l-0.3,0l-0.5-0.1c-0.7-0.1-1.4-0.3-2-0.4c-0.7-0.1-1.4-0.3-2-0.4c-1.2-0.2-2.5-0.4-3.8-0.6
			c-1.3-0.1-2.7-0.3-4-0.4c-1.4-0.1-2.7-0.2-4.1-0.3c-1.4,0-2.8-0.1-4.2-0.1c-5.6,0-11.5,0.4-17.5,1.3c-6,0.9-12,2.3-18.1,4.2
			c-1.5,0.5-3,1-4.5,1.5c-0.8,0.3-1.5,0.6-2.3,0.8l-1,0.4l-1.2,0.5c-0.8,0.3-1.6,0.7-2.4,1l-2.2,1c-1.4,0.6-2.9,1.4-4.4,2.1
			c-11.7,5.9-22.8,14-31.4,24.3c-1.1,1.3-2.1,2.6-3.1,4l-0.7,1l-0.1,0.1c-0.1,0.2,0.1-0.1,0,0l-0.2,0.3l-0.4,0.6l-1.5,2.3
			c-1.6,2.6-3.3,5.6-4.6,8.7c-2.7,6.1-4.6,12.7-5.4,19.3l-0.2,1.2l-0.1,1.2c-0.1,0.8-0.1,1.7-0.2,2.5c0,1.7-0.1,3.3,0,4.9
			c0,1.7,0.2,3.3,0.4,4.9c0.3,1.6,0.5,3.2,0.9,4.8l0.3,1.2l0.1,0.6l0,0.1c-0.1-0.5,0,0,0-0.1l0.1,0.3l0.8,2.7
			c0.1,0.2,0.1,0.5,0.2,0.6l0.2,0.5l0.4,1c0.3,0.7,0.5,1.4,0.9,2.1l1,2.2l1.2,2.1c0.4,0.7,0.8,1.4,1.2,2.1c0.4,0.7,0.8,1.4,1.3,2
			c1.8,2.6,3.9,5.1,6.1,7.3c0.6,0.5,1.2,1.1,1.7,1.6l0.9,0.8l0.9,0.7c0.6,0.5,1.2,1,1.8,1.4l1.9,1.3c2.6,1.7,5.3,3.1,8.1,4.2
			c1.4,0.6,2.8,0.9,4.2,1.4c0.7,0.2,1.4,0.3,2.2,0.5l1.1,0.2c0,0,0.3,0.1-0.1,0l0.2,0l0.3,0l0.7,0.1c5.8,0.8,11.7,0.3,17-1.5
			c2.6-0.9,5.1-2,7.4-3.5c1.1-0.7,2.2-1.5,3.2-2.3l0.7-0.6l0.2-0.2c-0.3,0.3,0,0-0.1,0.1l0.1-0.1l0.4-0.4l0.9-0.8l0.2-0.2l0.1-0.2
			l0.3-0.3c0.4-0.4,0.7-0.8,1.1-1.3c0.4-0.5,0.8-1,1.1-1.5c0.3-0.5,0.7-1,1-1.6c0.3-0.5,0.6-1.1,0.9-1.6c1.1-2.2,1.9-4.6,2.4-6.9
			c1-4.7,0.7-9.3-0.8-13.3l-0.4-1l-0.3-0.6c-0.2-0.4-0.3-0.7-0.6-1.2c-0.3-0.4-0.5-0.9-0.8-1.3c-0.3-0.4-0.6-0.8-0.9-1.3
			c-1.2-1.6-2.7-3.1-4.2-4.3c-1.5-1.2-3.2-2.2-4.9-2.9c-1.7-0.8-3.3-1.2-5-1.5c-0.4,0-0.8-0.1-1.2-0.2c-0.4,0-0.8,0-1.2-0.1
			c-0.4-0.1-0.8,0-1.2,0l-0.6,0l-0.1,0l-0.1,0c-0.4,0,0.4-0.1,0.3,0l-0.4,0.1c-0.5,0.1-1,0.2-1.6,0.2l-0.4,0.1l-0.2,0.1l-0.4,0.1
			l-0.4,0.1c-0.1,0-0.3,0-0.4,0.1c-0.3,0.1-0.7,0.2-1,0.3c-2.7,0.9-5,2.5-6.9,4.2c-1.9,1.7-3.3,3.4-4.4,5.1c-1,1.7-1.8,3.2-2.1,4.5
			c-0.1,0.2-0.1,0.3-0.2,0.5c0,0.2-0.1,0.3-0.1,0.5c-0.1,0.3-0.1,0.6-0.2,0.8c-0.2,0.5-0.2,1-0.3,1.3c-0.1,0.7-0.2,1.1-0.2,1.1
			l-0.2,0.8c-0.5,2.1-2.5,3.4-4.6,2.9c-1.4-0.3-2.5-1.4-2.9-2.8c0,0-0.1-0.5-0.4-1.6c-0.1-0.5-0.3-1.2-0.3-2c0-0.4-0.1-0.9-0.1-1.3
			c0-0.2,0-0.5,0-0.7c0-0.3,0-0.5,0-0.8c0-1.1,0.1-2.3,0.4-3.6c0.2-1.3,0.6-2.7,1.1-4.2c1.1-2.9,2.8-6.2,5.4-9.3
			c2.6-3.1,6.2-6.1,10.8-8.1c0.6-0.2,1.2-0.5,1.8-0.7c0.6-0.3,1.4-0.4,2.1-0.6c0.4-0.1,0.7-0.2,1.1-0.3l0.6-0.1l0.4-0.1
			c0.5-0.1,1-0.2,1.6-0.3l0.4-0.1c-0.1,0,0.8-0.1,0.5-0.1l0.1,0l0.3,0l1-0.1c0.7,0,1.4-0.1,2.1-0.1c0.7,0,1.4,0.1,2.1,0.1
			c0.7,0,1.4,0.2,2.2,0.3c2.9,0.4,5.8,1.2,8.5,2.4c2.8,1.2,5.5,2.7,8,4.7c2.5,1.9,4.8,4.2,6.9,6.8c0.5,0.7,1,1.4,1.5,2.1
			c0.5,0.7,0.9,1.4,1.3,2.2c0.4,0.7,0.9,1.6,1.3,2.5l0.6,1.3l0.4,1c1.2,3.3,2,6.8,2.3,10.4c0.3,3.6,0,7.2-0.7,10.8
			c-0.7,3.6-1.9,7.1-3.6,10.5c-0.4,0.9-0.9,1.7-1.3,2.5c-0.4,0.8-1,1.6-1.5,2.4c-0.5,0.8-1.1,1.6-1.7,2.3c-0.5,0.8-1.2,1.6-2,2.4
			l-0.5,0.6l-0.3,0.3l-0.2,0.2l-0.9,0.9l-0.4,0.4l-0.4,0.4l-0.3,0.2l-1.1,1c-1.5,1.3-3.1,2.5-4.7,3.5c-3.3,2.2-6.9,3.9-10.6,5.2
			c-7.5,2.6-15.7,3.4-23.8,2.3l-0.7-0.1l-0.3,0l-0.2,0c-0.5-0.1-0.2,0-0.4-0.1l-1.5-0.3c-1-0.2-2-0.4-3-0.6c-2-0.6-4-1.1-5.9-1.9
			c-3.9-1.4-7.5-3.4-11-5.6l-2.6-1.7c-0.8-0.6-1.6-1.3-2.5-1.9l-1.2-1l-1.2-1c-0.8-0.7-1.5-1.4-2.3-2.1c-2.9-2.9-5.7-6.1-8.1-9.5
			c-0.6-0.8-1.1-1.7-1.7-2.6c-0.6-0.9-1.1-1.8-1.6-2.7l-1.5-2.8l-1.3-2.9c-0.5-0.9-0.9-2-1.3-3l-0.6-1.6l-0.3-0.8
			c-0.1-0.3-0.1-0.5-0.2-0.7l-0.8-2.7l-0.1-0.3l-0.1-0.4l0-0.2l-0.2-0.8l-0.4-1.5c-0.5-2-0.8-4.1-1.1-6.2c-0.2-2.1-0.5-4.2-0.5-6.3
			c-0.1-2.1-0.1-4.2,0-6.3c0-1,0.1-2.1,0.2-3.1l0.1-1.6l0.2-1.5c1-8.3,3.3-16.2,6.6-23.7c1.7-3.8,3.6-7.3,5.9-11l1.5-2.3l0.4-0.6
			l0.2-0.3l0.2-0.3l0.1-0.2l0.9-1.2c1.2-1.6,2.4-3.2,3.7-4.8c10.3-12.4,23.2-21.6,36.5-28.2c1.7-0.8,3.3-1.6,5.1-2.4
			c0.9-0.4,1.7-0.8,2.6-1.1c0.8-0.3,1.6-0.6,2.4-1l1.2-0.5l1.4-0.5c0.9-0.3,1.7-0.6,2.5-0.9c1.7-0.6,3.4-1.1,5.1-1.7
			c6.8-2.1,13.7-3.7,20.4-4.6c6.8-1,13.4-1.4,19.9-1.3c1.6,0,3.2,0.1,4.8,0.2c1.6,0.1,3.2,0.2,4.7,0.4c1.6,0.2,3.1,0.4,4.6,0.5
			c1.5,0.2,3.1,0.5,4.6,0.7c0.8,0.1,1.4,0.3,2.1,0.4c0.7,0.1,1.4,0.3,2,0.4l0.5,0.1l0.3,0.1l0.4,0.1l1.1,0.3
			c0.7,0.2,1.4,0.4,2.1,0.5c1.4,0.3,2.8,0.8,4.1,1.2c1.4,0.4,2.7,0.9,4,1.3c5.2,1.8,10,3.9,14.3,6.2c8.7,4.6,15.6,9.8,20.8,14.6
			c1.3,1.2,2.5,2.3,3.6,3.5c1.1,1.1,2.1,2.2,3,3.2c0.9,1.1,1.7,2,2.5,2.9c0.7,1,1.4,1.8,2,2.6c0.3,0.4,0.6,0.8,0.8,1.1
			c0.2,0.3,0.4,0.6,0.6,0.9c0.4,0.5,0.7,1,1,1.4c0.5,0.7,0.8,1.1,0.8,1.1c2.2,3.2,1.4,7.5-1.7,9.8
			C387.1,867.1,382.8,866.4,380.5,863.3z"/>
	</g>
	<path fill="none" stroke="#9B0A07" stroke-width="14" stroke-linecap="round" stroke-miterlimit="10" d="M280.9,905.5
		c11.3-3.7,23.7-3.7,35,0c11.3,3.7,21.4,11,28.4,20.5"/>
	<g>
		<g>
			<path fill="#9B0A07" d="M447.6,910.7c0,0,0-0.1-0.1-0.3c0-0.1-0.1-0.2-0.2-0.4c-0.1-0.1-0.1-0.2-0.2-0.4
				c-0.3-0.6-0.9-1.5-1.7-2.4c-0.9-0.9-1.9-1.8-3.5-2.4c-1.5-0.6-3.5-1-5.9-0.9c-2.3,0.1-5.1,0.8-7.7,2c-2.6,1.3-5.1,3.2-6.8,5.7
				c-1.8,2.8-3.4,6.7-4.3,10.9c-0.9,4.2-1.1,8.9-0.5,13.7c0.3,2.4,0.9,4.7,1.6,7.1c0.4,1.2,0.8,2.3,1.3,3.4l0.3,0.7l0.5,1l0.3,0.5
				l0.2,0.4l0.4,0.8c2.6,4.5,6.1,8.6,10.4,11.9c4.3,3.4,9.6,6,15.3,7.8c5.7,1.8,12,2.8,18.5,3.1c6.5,0.3,13.2-0.1,19.9-1.2
				c3.3-0.5,6.7-1.2,10-2.1c1.7-0.4,3.3-0.9,4.9-1.4c1.3-0.5,3.6-1.1,4.9-1.7l2.3-0.9l2.3-1c0.8-0.3,1.6-0.7,2.3-1.1l2.3-1.1
				c3-1.6,5.9-3.4,8.7-5.3c5.6-3.9,10.7-8.6,15.3-13.8c9.2-10.5,16-23.1,21-36.3c2.5-6.6,4.6-13.4,6.4-20.1
				c0.9-3.4,1.7-6.8,2.4-10.2c0.7-3.5,1.5-6.9,2.2-10.3c2.9-13.8,5.8-27.4,10-40.1c4.1-12.7,9.5-24.6,16.4-34.6
				c1.7-2.5,3.5-4.9,5.4-7.1c0.5-0.6,0.9-1.1,1.4-1.6c0.5-0.6,1-1.1,1.5-1.7c0.5-0.5,0.9-1,1.4-1.4c0.5-0.5,1-1,1.6-1.5
				c4-3.9,8.3-7.1,12.5-9.7c4.2-2.6,8.5-4.6,12.6-6.1c4.1-1.5,7.9-2.4,11.5-3c1.8-0.3,3.5-0.4,5.1-0.6c1.6-0.1,3.1-0.1,4.5-0.1
				c2.8,0.1,5.1,0.4,7,0.7c0.9,0.2,1.8,0.3,2.5,0.5c0.7,0.2,1.3,0.3,1.8,0.4c0.9,0.3,1.4,0.4,1.4,0.4c1.8,0.5,2.9,2.4,2.4,4.3
				c-0.5,1.6-1.9,2.6-3.5,2.5l-0.2,0c0,0-0.4,0-1.3-0.1c-0.8-0.1-2.1-0.1-3.7,0c-1.6,0-3.6,0.2-5.9,0.5c-2.3,0.3-4.9,0.9-7.8,1.7
				c-2.9,0.8-6,2-9.3,3.5c-3.3,1.6-6.7,3.5-10.1,5.9c-3.4,2.4-6.9,5.2-10.1,8.6c-0.4,0.4-0.8,0.8-1.2,1.2c-0.4,0.5-0.9,1-1.3,1.4
				c-0.4,0.4-0.8,0.9-1.1,1.3c-0.4,0.5-0.8,0.9-1.2,1.4c-1.6,1.9-3.1,4-4.5,6.1c-5.8,8.7-10.5,19.3-14.1,31.2
				c-3.7,11.9-6.3,25-9,38.8c-0.7,3.5-1.4,7-2.1,10.5c-0.7,3.5-1.6,7.2-2.5,10.8c-1.8,7.3-4,14.5-6.8,21.8
				c-5.4,14.4-12.9,28.7-23.5,41c-5.3,6.1-11.3,11.7-18,16.3c-3.3,2.3-6.8,4.4-10.4,6.3l-2.7,1.3c-0.9,0.5-1.8,0.9-2.7,1.3l-2.8,1.2
				l-2.9,1.1l-1.4,0.5l-1.3,0.4l-2.8,0.9c-1.9,0.6-3.8,1.1-5.7,1.6c-3.8,1-7.6,1.7-11.4,2.3c-7.6,1.2-15.3,1.6-22.9,1.3
				c-7.6-0.4-15.1-1.6-22.3-3.9c-7.2-2.3-14-5.8-19.8-10.4c-5.8-4.6-10.6-10.3-14-16.4l-0.7-1.2l-0.3-0.6l-0.3-0.5l-0.5-1l-0.6-1.3
				c-0.7-1.6-1.3-3.2-1.8-4.9c-1-3.3-1.7-6.5-2.1-9.7c-0.8-6.4-0.4-12.7,0.9-18.5c0.6-2.9,1.5-5.7,2.6-8.3c0.3-0.7,0.5-1.3,0.9-1.9
				l0.5-1l0.5-1c0.4-0.8,0.5-1,1-1.8c0.4-0.7,0.8-1.3,1.3-2c1.8-2.5,3.9-4.6,6.1-6.2c2.2-1.6,4.6-2.9,6.9-3.8
				c4.7-1.8,9.3-2.4,13.5-1.9c4.2,0.4,8,1.9,10.8,3.9c2.8,2,4.7,4.5,5.7,6.6c1,2.1,1.4,3.8,1.6,4.9c0.1,0.3,0.1,0.6,0.1,0.8
				c0,0.2,0,0.3,0,0.4c0,0.2,0,0.4,0,0.4c0.2,2.1-1.4,4-3.5,4.1C449.7,913.1,448.2,912.1,447.6,910.7z"/>
		</g>
	</g>
	<g>
		<g>
			<path fill="#9B0A07" d="M417,921.7c0,0,0,0.2,0.1,0.7c0,0.2,0.1,0.5,0.2,0.8c0,0.2,0.1,0.3,0.1,0.5c0,0.2,0.1,0.3,0.1,0.4
				c0.1,0.3,0.2,0.6,0.3,1c0.1,0.4,0.3,0.9,0.4,1.4c0.2,0.5,0.4,1,0.6,1.6c0.2,0.6,0.5,1.2,0.8,1.8c1.3,2.5,3.2,5.4,6.2,8.4
				c3,2.9,7.1,5.9,12.1,7.9c5.1,2.1,11.2,3.3,17.5,2.6c1.6-0.2,3.2-0.5,4.7-0.9c0.4-0.1,0.9-0.3,1.3-0.4c0.2-0.1,0.5-0.2,0.7-0.2
				l0.5-0.2c0.7-0.2,1.5-0.6,2.3-0.9c1.6-0.7,3.2-1.6,4.7-2.5c1.5-1,3-2.1,4.5-3.4c5.8-5,10.7-12.1,13.3-20.5
				c1.3-4.2,2.1-8.6,2.1-13.1c0-2.3-0.2-4.4-0.6-6.9c-0.1-0.5-0.2-1.1-0.3-1.6c-0.1-0.6-0.2-1.2-0.4-1.7c-0.3-1.2-0.6-2.3-1-3.4
				c-3-9.2-9-17.9-17.1-24.8c-4.1-3.4-8.7-6.4-13.7-8.6l-1.9-0.8l-1.8-0.7l-2.2-0.8c-0.7-0.2-1.3-0.4-1.9-0.6
				c-2.6-0.8-5.4-1.4-8.2-1.8c-5.6-0.8-11.5-0.9-17.4-0.3c-5.9,0.7-11.8,2-17.5,4.1c-5.7,2.1-11.3,4.8-16.5,8.2
				c-2.6,1.7-5.1,3.6-7.5,5.6c-1.2,1-2.4,2.1-3.5,3.1l-0.8,0.8l-0.4,0.4c0,0-0.2,0.2-0.1,0.1l-0.2,0.2l-1.8,1.9l-1.5,1.7l-1.5,1.8
				c-1,1.2-2,2.5-2.9,3.8c-1.9,2.6-3.7,5.3-5.3,8.1c-3.2,5.7-5.9,11.7-8,18c-4.1,12.7-5.9,26.4-5.2,40c0.7,13.7,4,27.3,9.4,40.2
				c5.4,12.9,12.9,24.9,22,35.7c9.1,10.7,19.8,20.1,31.7,27.6c11.9,7.5,24.8,13.2,38.3,17.1c26.9,7.8,55.3,8.3,81.4,3
				c26.2-5.4,50.2-16.6,70.2-31c10-7.2,19-15.2,26.9-23.6c7.9-8.4,14.7-17.4,20.5-26.4c1.3-2.1,2.6-4.4,3.9-6.7
				c1.2-2.3,2.4-4.6,3.5-6.9c2.2-4.6,4.1-9.3,5.9-14c3.7-9.2,6.9-18.3,9.8-26.8c3-8.5,5.9-16.6,8.8-24c2.9-7.4,5.9-14.2,9-20.2
				c3.1-6,6.4-11.2,9.8-15.4c3.4-4.2,7.1-7.4,10.5-9.5c3.4-2.1,6.4-3,8.4-3.5c1-0.2,1.8-0.3,2.3-0.4c0.5-0.1,0.8-0.1,0.8-0.1
				c1.8-0.2,3.4,1,3.7,2.8c0.2,1.7-0.8,3.2-2.4,3.6l-0.3,0.1c0,0-0.2,0-0.6,0.1c-0.4,0.1-0.9,0.2-1.7,0.5c-1.4,0.5-3.5,1.4-5.9,3.2
				c-2.4,1.8-5.1,4.6-7.7,8.5c-2.7,3.8-5.2,8.7-7.7,14.5c-2.5,5.7-4.9,12.4-7.4,19.7c-2.5,7.3-4.9,15.4-7.6,24
				c-2.7,8.6-5.6,17.9-9.2,27.7c-1.8,4.9-3.8,9.8-6.1,14.9c-1.1,2.5-2.3,5.1-3.7,7.6c-1.3,2.5-2.7,5.1-4.3,7.7
				c-12.3,19.6-29.4,38.5-50.8,54.1c-21.4,15.6-47.2,27.8-75.6,33.8c-28.4,6-59.2,5.5-88.6-2.8c-14.7-4.2-29-10.4-42.3-18.6
				c-13.2-8.3-25.2-18.6-35.4-30.5c-10.2-11.9-18.6-25.3-24.6-39.8c-6-14.4-9.8-29.9-10.6-45.4c-0.8-15.6,1.2-31.1,6-45.7
				c2.4-7.3,5.5-14.3,9.3-20.9c1.9-3.3,4-6.5,6.2-9.6c1.1-1.5,2.3-3,3.5-4.5l1.8-2.2l2-2.2l1.8-1.9l0.2-0.2l0.3-0.3l0.5-0.5l1-1
				c1.4-1.3,2.8-2.6,4.2-3.8c2.9-2.4,5.9-4.7,9-6.7c6.2-4.1,12.9-7.4,19.8-9.9c13.7-5,28.4-6.6,42.5-4.5c3.5,0.5,6.9,1.3,10.4,2.3
				c0.9,0.3,1.8,0.5,2.6,0.8l2.2,0.8l0.4,0.2l0.3,0.1l0.6,0.2l1.2,0.5l2.4,1c6.3,2.9,12.1,6.6,17.2,11c10.2,8.7,17.8,19.8,21.6,31.9
				c0.5,1.5,0.9,3,1.3,4.6c0.2,0.8,0.3,1.5,0.5,2.3c0.2,0.7,0.3,1.6,0.4,2.4c0.5,2.9,0.7,6.2,0.7,9.2c0,6.2-1.1,12.1-2.9,17.6
				c-3.6,11-10,20.4-17.9,27.2c-2,1.7-4.1,3.2-6.2,4.6c-2.2,1.4-4.4,2.5-6.7,3.5c-1.1,0.5-2.3,1-3.5,1.4l-0.9,0.3
				c-0.3,0.1-0.5,0.2-0.8,0.2c-0.6,0.2-1.1,0.3-1.7,0.5c-2.4,0.6-4.7,1.1-7,1.3c-4.6,0.5-9.1,0.2-13.2-0.5
				c-4.1-0.7-7.9-1.9-11.4-3.4c-6.9-2.9-12.4-7-16.6-11.1c-4.2-4.2-7-8.5-8.8-12.3c-0.4-0.9-0.9-1.8-1.2-2.7
				c-0.3-0.9-0.7-1.7-0.9-2.4c-0.2-0.8-0.5-1.5-0.7-2.1c-0.2-0.7-0.3-1.4-0.5-1.9c-0.1-0.3-0.1-0.5-0.2-0.8c0-0.2-0.1-0.4-0.1-0.5
				c-0.1-0.3-0.1-0.6-0.1-0.8c-0.1-0.5-0.1-0.7-0.1-0.7c-0.7-3.8,1.9-7.4,5.7-8.1C412.6,915.5,416.2,918,417,921.7z"/>
		</g>
	</g>
	<g>
		<path fill="#9B0A07" d="M484.2,871.5c0,0,0.8-0.6,2.2-1.7c0.3-0.3,0.8-0.6,1.1-0.9c0.3-0.3,0.7-0.6,1.1-1c0.4-0.4,0.8-0.7,1.3-1.1
			c0.5-0.4,0.9-0.9,1.4-1.4c0.5-0.5,1-1,1.5-1.5c0.5-0.6,1-1.1,1.6-1.7c0.6-0.6,1.1-1.2,1.6-1.9c0.5-0.7,1.1-1.3,1.6-2
			c1-1.4,2.2-2.8,3.2-4.4c1.1-1.5,2-3.2,3-4.8c0.9-1.7,1.8-3.3,2.6-5c0.8-1.7,1.5-3.4,2.2-5c0.3-0.8,0.6-1.7,0.9-2.5
			c0.3-0.8,0.6-1.6,0.8-2.4c0.2-0.8,0.5-1.5,0.7-2.3c0.2-0.7,0.4-1.5,0.5-2.2c0.2-0.7,0.3-1.4,0.5-2c0.1-0.6,0.2-1.3,0.3-1.8
			c0.2-1.1,0.4-2.1,0.5-3c0.2-1.7,0.4-2.6,0.4-2.6l0-0.2c0.3-2.2,2.3-3.7,4.5-3.4c2,0.3,3.5,2.1,3.4,4.1c0,0,0,1.1-0.1,2.9
			c0,0.9-0.1,2.1-0.3,3.4c-0.1,0.6-0.1,1.3-0.2,2.1c-0.1,0.7-0.2,1.5-0.3,2.3c-0.1,0.8-0.2,1.6-0.4,2.5c-0.2,0.8-0.3,1.7-0.5,2.6
			c-0.2,0.9-0.4,1.8-0.6,2.8c-0.2,0.9-0.5,1.9-0.7,2.9c-0.6,1.9-1.2,3.9-1.9,5.9c-0.7,2-1.6,4-2.4,6c-0.9,1.9-1.8,3.9-2.9,5.8
			c-1,1.9-2.1,3.7-3.2,5.4c-0.6,0.9-1.1,1.7-1.7,2.5c-0.5,0.8-1.1,1.6-1.7,2.4c-0.6,0.7-1.1,1.5-1.7,2.2c-0.5,0.7-1.1,1.3-1.6,2
			c-0.5,0.6-1,1.2-1.5,1.8c-0.5,0.6-1,1.1-1.5,1.6c-0.5,0.5-0.9,1-1.3,1.4c-0.4,0.4-0.7,0.7-1.1,1c-1.3,1.2-2,1.9-2,1.9
			c-2.8,2.7-7.2,2.6-9.9-0.1c-2.7-2.8-2.6-7.2,0.1-9.9C483.8,871.8,484,871.6,484.2,871.5z"/>
	</g>
	<g>
		<g>
			<path fill="#9B0A07" d="M761.3,779.3c0,0,0.4-0.1,1.2-0.2c0.4-0.1,0.9-0.1,1.5-0.2c0.3,0,0.6-0.1,1-0.1c0.4,0,0.8,0,1.3-0.1
				c0.9,0,1.9-0.1,3-0.1c1.1,0,2.2,0.1,3.5,0.1c1.2,0.1,2.6,0.3,4,0.4c1.4,0.3,2.9,0.5,4.5,0.8c6.3,1.4,13.8,4.2,21.4,9.1
				c3.8,2.5,7.6,5.4,11.2,9c0.9,0.9,1.8,1.8,2.7,2.8l0.7,0.7l0.3,0.4l0.1,0.1l0.2,0.2l0.1,0.2c0.4,0.5,0.8,0.9,1.2,1.4
				c0.4,0.5,0.8,0.9,1.2,1.5c0.4,0.6,0.8,1.1,1.3,1.7c0.9,1.1,1.6,2.2,2.4,3.4c3.1,4.5,5.9,9.5,8.3,14.9c2.4,5.4,4.4,11.1,6.1,17
				c1.7,5.9,2.9,12.2,3.8,18.5c0.2,1.5,0.4,3.1,0.6,4.8c0.2,1.6,0.3,3.2,0.5,4.8c0.3,3.2,0.5,6.4,0.8,9.6c0.5,6.4,0.9,12.8,1.7,19
				c0.8,6.3,1.9,12.4,3.7,18.3l0.3,1.1l0.1,0.3l0,0.1c0.1,0.2,0-0.1,0,0l0.2,0.6l0.9,2.4c0.3,0.8,0.6,1.4,0.9,2.1
				c0.3,0.7,0.6,1.3,0.9,2c1.3,2.8,2.7,5.5,4.4,8.1c1.6,2.6,3.4,5.1,5.4,7.5c1,1.2,2,2.4,3.1,3.5l1.6,1.7l1.7,1.6
				c4.4,4.3,9.5,7.9,14.9,10.8c0.7,0.4,1.3,0.7,2,1l2.1,1l2.1,0.9c0.8,0.3,1.6,0.7,2.2,0.8l2,0.7c0.7,0.2,1.4,0.4,2.2,0.6
				c0.7,0.2,1.5,0.4,2.2,0.6l2.2,0.5c5.9,1.2,12,1.5,17.9,1c5.9-0.4,11.6-1.8,16.9-3.8c2.7-1,5.2-2.2,7.6-3.6l0.2-0.1l0.1-0.1
				c0.1,0-0.3,0.2-0.1,0l0.5-0.3l1-0.6c0.7-0.4,1.4-0.8,2-1.2l1.6-1.1c0.5-0.4,1-0.7,1.6-1.2c4.3-3.4,8-7.3,11.1-11.5
				c6.2-8.4,9.7-18,10.6-27c0.2-2.3,0.3-4.4,0.3-6.6c0-0.9-0.1-2-0.2-3c-0.1-1-0.2-2-0.4-3c-0.3-1.9-0.7-3.8-1.3-5.5
				c-0.5-1.7-1.1-3.4-1.9-4.8c-0.8-1.5-1.6-2.8-2.5-4c-0.2-0.3-0.5-0.6-0.7-0.9l-0.4-0.4l-0.2-0.2c-0.2-0.2,0.2,0.2,0.2,0.1
				l-0.1-0.1l-0.1-0.1c-0.3-0.3-0.7-0.6-1-0.9l-0.2-0.2l-0.2-0.1l-0.3-0.3c-0.4-0.3-1-0.7-1.5-1.1c-0.6-0.3-1.2-0.6-1.7-0.9
				c-1.2-0.5-2.4-1-3.5-1.2c-4.7-1.2-8.5-0.4-10.8,0.6c-0.3,0.1-0.6,0.2-0.8,0.4c-0.2,0.1-0.5,0.3-0.7,0.4c-0.2,0.1-0.4,0.2-0.6,0.3
				c-0.2,0.1-0.3,0.2-0.4,0.3c-0.5,0.4-0.8,0.6-0.8,0.6l-0.4,0.3c-1.3,1-3.2,0.7-4.1-0.6c-0.8-1.1-0.8-2.6,0-3.6
				c0,0,0.3-0.4,0.9-1.2c0.2-0.2,0.3-0.4,0.5-0.7c0.2-0.2,0.5-0.5,0.7-0.7c0.3-0.3,0.6-0.5,0.9-0.8c0.3-0.3,0.7-0.5,1.1-0.8
				c3.1-2.4,8.7-4.7,15.9-4.2c1.8,0.1,3.7,0.5,5.6,1c1,0.3,1.9,0.6,2.9,1c1,0.4,1.9,0.8,3.1,1.5l0.8,0.5l0.4,0.2l0.3,0.2
				c0.4,0.3,0.8,0.5,1.1,0.8l0.1,0.1l0.1,0c0,0,0.5,0.4,0.3,0.2l0.3,0.3l0.7,0.6c0.4,0.4,0.9,0.8,1.3,1.2c1.7,1.6,3.3,3.5,4.7,5.6
				c2.8,4.2,4.8,9.1,5.9,14.3c0.3,1.3,0.5,2.7,0.7,4c0.2,1.4,0.3,2.7,0.3,4.2c0.1,2.7,0,5.5-0.3,8.4c-1.1,11.4-5.5,23.3-13.1,33.8
				c-3.8,5.2-8.4,10.1-13.8,14.4c-0.6,0.5-1.4,1.1-2.1,1.6c-0.7,0.5-1.5,1.1-2.2,1.6c-0.7,0.5-1.3,0.8-2,1.3l-1,0.6l-0.5,0.3
				l-0.3,0.2l-0.1,0.1l-0.3,0.2c-3.1,1.7-6.2,3.3-9.5,4.5c-6.6,2.5-13.7,4.2-20.9,4.8c-7.2,0.6-14.6,0.3-21.8-1.2l-2.7-0.6
				c-0.9-0.2-1.8-0.5-2.7-0.7c-0.9-0.3-1.8-0.4-2.7-0.8l-2.8-0.9c-1-0.3-1.7-0.6-2.5-0.9l-2.6-1l-2.5-1.2c-0.9-0.4-1.7-0.8-2.5-1.3
				c-6.6-3.5-12.8-7.9-18.1-13c-5.4-5.1-10.1-11-14-17.3c-2-3.1-3.6-6.4-5.2-9.8c-0.4-0.9-0.7-1.8-1.1-2.7c-0.4-0.9-0.8-1.8-1-2.6
				l-0.8-2.4l-0.2-0.6l-0.1-0.3l0-0.2l-0.1-0.3l-0.4-1.3c-2.1-7-3.3-14-4.1-20.8c-0.8-6.8-1.2-13.4-1.6-19.8
				c-0.2-3.2-0.4-6.3-0.6-9.4c-0.1-1.5-0.2-3.1-0.4-4.5c-0.1-1.5-0.3-2.9-0.5-4.5c-0.7-5.9-1.7-11.5-3.1-16.8
				c-1.4-5.3-3.1-10.4-5.2-15.1c-2.1-4.7-4.4-9.1-7-13c-0.7-1-1.3-2-2-2.8c-0.3-0.4-0.6-0.9-1-1.3c-0.3-0.4-0.8-0.9-1.1-1.4
				c-0.4-0.5-0.8-0.9-1.1-1.4l-0.1-0.2c0,0-0.1-0.2,0,0l-0.1-0.1l-0.3-0.3l-0.5-0.6c-0.7-0.8-1.4-1.6-2.2-2.4c-2.9-3.1-6-5.7-9-8
				c-3.1-2.2-6.1-4.1-9-5.7c-1.5-0.7-2.9-1.5-4.3-2c-1.4-0.7-2.7-1.1-4-1.6c-1.3-0.5-2.5-0.8-3.7-1.2c-1.2-0.3-2.3-0.6-3.3-0.9
				c-1-0.2-2-0.4-2.9-0.6c-0.9-0.2-1.6-0.2-2.4-0.4c-0.4-0.1-0.7-0.1-1-0.1c-0.3,0-0.7-0.1-1-0.1c-0.6,0-1.1-0.1-1.5-0.1
				c-0.8-0.1-1.3-0.1-1.3-0.1c-2-0.2-3.4-1.9-3.3-3.9C758.4,780.8,759.7,779.5,761.3,779.3z"/>
		</g>
	</g>
	<path fill="none" stroke="#9B0A07" stroke-width="14" stroke-linecap="round" stroke-miterlimit="10" d="M701.3,900.8
		c17.7,8.2,30.5,24.9,39,42c16.9,34,35.9,71.2,68,92.7c37.4,25.1,82.7,33.8,127.2,29.1c38.3-4,79-29.5,97.7-64.7
		c19.9-37.7,21.7-84.3,2.5-122.6c-10.5-20.9-28.8-38.3-51.2-44.8s-48.7-0.8-64.3,16.6c-15.6,17.3-18,46.1-3.3,64.2
		c14.7,18.1,45.8,18.5,60.2-4.2"/>
	<path fill="none" stroke="#9B0A07" stroke-width="14" stroke-linecap="round" stroke-miterlimit="10" d="M1037.9,882.2
		c47,9.7,88.6-24.9,103.1-38.4"/>
	<g>
		<path fill="#9B0A07" d="M920.6,850.2c0,0-1-0.7-2.7-1.9c-0.2-0.1-0.5-0.3-0.7-0.6c-0.3-0.2-0.6-0.4-0.9-0.7
			c-0.6-0.5-1.2-1-1.9-1.5c-0.7-0.5-1.3-1.1-1.9-1.8c-0.7-0.6-1.4-1.3-2.1-2c-1.4-1.4-2.9-3-4.3-4.7c-1.5-1.7-2.8-3.6-4.3-5.6
			c-0.7-1-1.3-2.1-2-3.1c-0.3-0.5-0.7-1.1-1-1.6c-0.3-0.5-0.6-1.1-0.9-1.7c-0.6-1.1-1.3-2.2-1.8-3.4c-0.5-1.2-1.1-2.3-1.6-3.5
			c-0.6-1.1-1-2.4-1.5-3.5c-0.5-1.2-0.9-2.3-1.3-3.6c-0.4-1.2-0.8-2.4-1.1-3.5c-0.3-1.2-0.6-2.4-0.9-3.5c-0.6-2.3-0.9-4.6-1.3-6.7
			c-0.2-1.1-0.3-2.1-0.4-3.1c-0.1-1-0.2-2-0.3-2.9c-0.1-1.9-0.1-3.6-0.2-5.2c-0.1-1.5,0.1-2.9,0.1-4c0.1-2.2,0.2-3.4,0.2-3.4
			c0.1-1.7,1.6-3.1,3.3-3c1.6,0.1,2.9,1.4,3,3l0,0.3c0,0,0.1,1.1,0.1,3.2c0.1,1,0,2.2,0.3,3.6c0.2,1.4,0.3,2.9,0.6,4.6
			c0.2,0.8,0.3,1.7,0.5,2.6c0.2,0.9,0.3,1.8,0.6,2.8c0.5,1.9,1,3.9,1.8,5.9c0.4,1,0.7,2,1.1,3c0.4,1,0.9,2,1.3,3c0.4,1,0.9,2,1.5,3
			c0.5,1,1,2,1.6,3c0.6,1,1.2,1.9,1.7,2.9c0.6,1,1.3,1.8,1.9,2.7c0.3,0.5,0.6,0.9,0.9,1.3c0.3,0.4,0.7,0.9,1,1.3
			c0.7,0.8,1.3,1.7,2,2.5c1.4,1.5,2.7,3.1,4.1,4.3c1.3,1.4,2.7,2.5,3.9,3.5c0.6,0.5,1.3,1,1.8,1.4c0.6,0.4,1.1,0.9,1.6,1.2
			c0.5,0.3,1,0.6,1.4,0.9c0.2,0.1,0.4,0.3,0.6,0.4c0.2,0.1,0.4,0.2,0.6,0.4c1.8,1,2.9,1.6,2.9,1.6l0,0c3.4,1.9,4.6,6.2,2.7,9.5
			c-1.9,3.4-6.2,4.6-9.5,2.7C921,850.5,920.8,850.3,920.6,850.2z"/>
	</g>
	<path fill="none" stroke="#9B0A07" stroke-width="14" stroke-linecap="round" stroke-miterlimit="10" d="M936.9,1066
		c7.6,15.4,7,34.6-1.6,49.4c-4.6,8-11.7,15.8-10.7,25c1.1,10.9,13,17.4,23.8,19.3c24.6,4.4,50.6-5.2,68.5-22.7
		c17.9-17.4,28-41.9,30.5-66.8s-2.2-50-10.7-73.5"/>
	<path fill="none" stroke="#9B0A07" stroke-width="14" stroke-linecap="round" stroke-miterlimit="10" d="M605.8,1053.6
		c-8.4,20.1-9.6,43.4-1.6,63.6c8,20.2,25.7,36.8,46.9,41.6c8.1,1.8,17.4,1.7,23.7-3.7c5.6-4.9,7.5-12.9,7.2-20.3
		c-0.2-7.4-2.2-14.7-2.7-22.2c-1.7-25.6,13.9-49,30.9-68.3c16.9-19.3,36.4-37.5,45.4-61.6"/>
</g>
</svg>
